<svg id="Layer_1" data-name="Layer 1" xmlns="http://www.w3.org/2000/svg" viewBox="0 0 1396.83 1620"><defs><style>.cls-1{fill:#49958b;}.cls-2{font-size:181.15px;}.cls-10,.cls-2,.cls-3,.cls-4{fill:#3a3b36;}.cls-2,.cls-3{font-family:NiagaraSolid-Reg, Niagara Solid;}.cls-3{font-size:231.85px;letter-spacing:0.02em;}.cls-4{font-size:86.57px;font-family:Rockwell;}.cls-5{letter-spacing:-0.03em;}.cls-6{letter-spacing:-0.04em;}.cls-7{letter-spacing:-0.02em;}.cls-8{letter-spacing:0.02em;}.cls-9{letter-spacing:0.02em;}.cls-10{font-size:52.23px;font-family:FelixTitlingMT, Felix Titling;}.cls-11{letter-spacing:-0.02em;}.cls-12{letter-spacing:0em;}.cls-13{letter-spacing:-0.16em;}.cls-14{letter-spacing:0em;}.cls-15{letter-spacing:-0.04em;}</style></defs><path class="cls-1" d="M177.48,321.19h-.34a60.69,60.69,0,0,0-20.94,0h-.35l1.63-38.81a62.37,62.37,0,0,0,18.37,0Z" transform="translate(-155.36 -198)"/><circle class="cls-1" cx="11.31" cy="71.05" r="9.08"/><polygon class="cls-1" points="0.98 127.38 7.87 168.7 14.75 168.7 21.64 127.38 0.98 127.38"/><path class="cls-1" d="M220,294.76h-.53a95.83,95.83,0,0,0-33.1,0h-.55l2.58-61.33a99,99,0,0,0,29,0Z" transform="translate(-155.36 -198)"/><circle class="cls-1" cx="47.58" cy="14.36" r="14.36"/><polygon class="cls-1" points="31.26 103.39 42.14 168.7 53.03 168.7 63.91 103.39 31.26 103.39"/><path class="cls-1" d="M251,331.46h-.27a47.27,47.27,0,0,0-16.21,0h-.27l1.27-30a48.87,48.87,0,0,0,14.22,0Z" transform="translate(-155.36 -198)"/><circle class="cls-1" cx="87.3" cy="93.1" r="7.03"/><polygon class="cls-1" points="79.3 136.71 84.63 168.7 89.96 168.7 95.29 136.71 79.3 136.71"/><path class="cls-1" d="M327,321.19h-.34a60.69,60.69,0,0,0-20.94,0h-.35L307,282.38a62.37,62.37,0,0,0,18.37,0Z" transform="translate(-155.36 -198)"/><circle class="cls-1" cx="160.84" cy="71.05" r="9.08"/><polygon class="cls-1" points="150.51 127.38 157.39 168.7 164.28 168.7 171.16 127.38 150.51 127.38"/><path class="cls-1" d="M296,294.76h-.53a95.83,95.83,0,0,0-33.1,0h-.55l2.58-61.33a99,99,0,0,0,29,0Z" transform="translate(-155.36 -198)"/><circle class="cls-1" cx="123.57" cy="14.36" r="14.36"/><polygon class="cls-1" points="107.25 103.39 118.13 168.7 129.01 168.7 139.9 103.39 107.25 103.39"/><path class="cls-1" d="M827.58,1653.19h-.34a60.69,60.69,0,0,0-20.94,0H806l1.63-38.81a62.37,62.37,0,0,0,18.37,0Z" transform="translate(-155.36 -198)"/><circle class="cls-1" cx="661.41" cy="1403.05" r="9.08"/><polygon class="cls-1" points="651.08 1459.38 657.96 1500.7 664.85 1500.7 671.74 1459.38 651.08 1459.38"/><path class="cls-1" d="M870.13,1626.76h-.53a95.83,95.83,0,0,0-33.1,0H836l2.58-61.33a99,99,0,0,0,29,0Z" transform="translate(-155.36 -198)"/><circle class="cls-1" cx="697.68" cy="1346.36" r="14.36"/><polygon class="cls-1" points="681.36 1435.39 692.24 1500.7 703.13 1500.7 714.01 1435.39 681.36 1435.39"/><path class="cls-1" d="M901.12,1663.46h-.26a47.27,47.27,0,0,0-16.21,0h-.27l1.26-30a48.94,48.94,0,0,0,14.23,0Z" transform="translate(-155.36 -198)"/><circle class="cls-1" cx="737.4" cy="1425.1" r="7.03"/><polygon class="cls-1" points="729.4 1468.71 734.73 1500.7 740.06 1500.7 745.39 1468.71 729.4 1468.71"/><path class="cls-1" d="M977.11,1653.19h-.34a60.69,60.69,0,0,0-20.94,0h-.35l1.63-38.81a62.37,62.37,0,0,0,18.37,0Z" transform="translate(-155.36 -198)"/><circle class="cls-1" cx="810.94" cy="1403.05" r="9.08"/><polygon class="cls-1" points="800.61 1459.38 807.49 1500.7 814.38 1500.7 821.26 1459.38 800.61 1459.38"/><path class="cls-1" d="M946.12,1626.76h-.53a95.88,95.88,0,0,0-33.11,0h-.54l2.58-61.33a99,99,0,0,0,29,0Z" transform="translate(-155.36 -198)"/><circle class="cls-1" cx="773.67" cy="1346.36" r="14.36"/><polygon class="cls-1" points="757.35 1435.39 768.23 1500.7 779.11 1500.7 790 1435.39 757.35 1435.39"/><text class="cls-2" transform="translate(216.5 171)">Poverty Monitoring System</text><text class="cls-3" transform="translate(915.64 621)">PMS</text><text class="cls-4" transform="translate(213.64 1596.33)"><tspan class="cls-5">P</tspan><tspan class="cls-6" x="47.05" y="0">o</tspan><tspan class="cls-7" x="93.2" y="0">v</tspan><tspan x="137.97" y="0">e</tspan><tspan class="cls-8" x="187.59" y="0">r</tspan><tspan x="225" y="0">ty Monito</tspan><tspan class="cls-9" x="597.52" y="0">r</tspan><tspan x="635.36" y="0">ing System</tspan></text><text class="cls-2" transform="translate(243.5 1017)">Poverty <tspan class="cls-1" x="359.65" y="0">Monitoring</tspan><tspan x="816.33" y="0" xml:space="preserve"> System</tspan></text><path class="cls-1" d="M177,773.49h-.33a60.74,60.74,0,0,0-21,0h-.34l1.63-38.8a63.29,63.29,0,0,0,18.37,0Z" transform="translate(-155.36 -198)"/><circle class="cls-1" cx="10.81" cy="523.36" r="9.08"/><polygon class="cls-1" points="0.48 579.69 7.37 621 14.26 621 21.14 579.69 0.48 579.69"/><path class="cls-1" d="M219.54,747.06H219a96.54,96.54,0,0,0-33.11,0h-.54l2.57-61.33a99.05,99.05,0,0,0,29,0Z" transform="translate(-155.36 -198)"/><circle class="cls-1" cx="47.09" cy="466.66" r="14.36"/><polygon class="cls-1" points="30.76 555.7 41.65 621 52.53 621 63.41 555.7 30.76 555.7"/><path class="cls-1" d="M250.53,783.77h-.26a46.67,46.67,0,0,0-16.22,0h-.26l1.26-30a48,48,0,0,0,14.22,0Z" transform="translate(-155.36 -198)"/><circle class="cls-1" cx="86.8" cy="545.4" r="7.03"/><polygon class="cls-1" points="78.8 589.01 84.14 621 89.47 621 94.8 589.01 78.8 589.01"/><path class="cls-1" d="M326.51,773.49h-.34a60.69,60.69,0,0,0-20.94,0h-.34l1.63-38.8a63.29,63.29,0,0,0,18.37,0Z" transform="translate(-155.36 -198)"/><circle class="cls-1" cx="160.34" cy="523.36" r="9.08"/><polygon class="cls-1" points="150.01 579.69 156.9 621 163.78 621 170.67 579.69 150.01 579.69"/><path class="cls-1" d="M295.53,747.06H295a96.49,96.49,0,0,0-33.1,0h-.54l2.57-61.33a99.05,99.05,0,0,0,29,0Z" transform="translate(-155.36 -198)"/><circle class="cls-1" cx="123.08" cy="466.66" r="14.36"/><polygon class="cls-1" points="106.75 555.7 117.64 621 128.52 621 139.4 555.7 106.75 555.7"/><path class="cls-1" d="M876.62,773.49h-.33a60.74,60.74,0,0,0-20.95,0H855l1.63-38.8a63.29,63.29,0,0,0,18.37,0Z" transform="translate(-155.36 -198)"/><circle class="cls-1" cx="710.45" cy="523.36" r="9.08"/><polygon class="cls-1" points="700.13 579.69 707.01 621 713.9 621 720.78 579.69 700.13 579.69"/><path class="cls-1" d="M919.18,747.06h-.53a96.54,96.54,0,0,0-33.11,0H885l2.57-61.33a99.05,99.05,0,0,0,29,0Z" transform="translate(-155.36 -198)"/><circle class="cls-1" cx="746.73" cy="466.66" r="14.36"/><polygon class="cls-1" points="730.4 555.7 741.29 621 752.17 621 763.06 555.7 730.4 555.7"/><path class="cls-1" d="M950.17,783.77h-.26a46.62,46.62,0,0,0-16.21,0h-.27l1.26-30a48,48,0,0,0,14.22,0Z" transform="translate(-155.36 -198)"/><circle class="cls-1" cx="786.44" cy="545.4" r="7.03"/><polygon class="cls-1" points="778.45 589.01 783.78 621 789.11 621 794.44 589.01 778.45 589.01"/><path class="cls-1" d="M1026.15,773.49h-.33a60.74,60.74,0,0,0-20.95,0h-.34l1.63-38.8a63.29,63.29,0,0,0,18.37,0Z" transform="translate(-155.36 -198)"/><circle class="cls-1" cx="859.98" cy="523.36" r="9.08"/><polygon class="cls-1" points="849.65 579.69 856.54 621 863.42 621 870.31 579.69 849.65 579.69"/><path class="cls-1" d="M995.17,747.06h-.53a96.54,96.54,0,0,0-33.11,0H961l2.57-61.33a99.05,99.05,0,0,0,29,0Z" transform="translate(-155.36 -198)"/><circle class="cls-1" cx="822.72" cy="466.66" r="14.36"/><polygon class="cls-1" points="806.39 555.7 817.28 621 828.16 621 839.04 555.7 806.39 555.7"/><path class="cls-1" d="M186.48,1167.19h-.34a60.69,60.69,0,0,0-20.94,0h-.35l1.63-38.81a62.37,62.37,0,0,0,18.37,0Z" transform="translate(-155.36 -198)"/><circle class="cls-1" cx="20.31" cy="917.05" r="9.08"/><polygon class="cls-1" points="9.98 973.38 16.86 1014.7 23.75 1014.7 30.64 973.38 9.98 973.38"/><path class="cls-1" d="M229,1140.76h-.53a95.83,95.83,0,0,0-33.1,0h-.55l2.58-61.33a99,99,0,0,0,29,0Z" transform="translate(-155.36 -198)"/><circle class="cls-1" cx="56.58" cy="860.36" r="14.36"/><polygon class="cls-1" points="40.26 949.39 51.14 1014.7 62.03 1014.7 72.91 949.39 40.26 949.39"/><path class="cls-1" d="M260,1177.46h-.27a47.27,47.27,0,0,0-16.21,0h-.27l1.27-30a48.87,48.87,0,0,0,14.22,0Z" transform="translate(-155.36 -198)"/><circle class="cls-1" cx="96.3" cy="939.1" r="7.03"/><polygon class="cls-1" points="88.3 982.71 93.63 1014.7 98.96 1014.7 104.29 982.71 88.3 982.71"/><path class="cls-1" d="M336,1167.19h-.34a60.69,60.69,0,0,0-20.94,0h-.35l1.63-38.81a62.37,62.37,0,0,0,18.37,0Z" transform="translate(-155.36 -198)"/><circle class="cls-1" cx="169.84" cy="917.05" r="9.08"/><polygon class="cls-1" points="159.51 973.38 166.39 1014.7 173.28 1014.7 180.16 973.38 159.51 973.38"/><path class="cls-1" d="M305,1140.76h-.53a95.83,95.83,0,0,0-33.1,0h-.55l2.58-61.33a99,99,0,0,0,29,0Z" transform="translate(-155.36 -198)"/><circle class="cls-1" cx="132.57" cy="860.36" r="14.36"/><polygon class="cls-1" points="116.25 949.39 127.13 1014.7 138.01 1014.7 148.9 949.39 116.25 949.39"/><text class="cls-10" transform="translate(216.5 493.63)">P<tspan class="cls-11" x="27.72" y="0">o</tspan><tspan class="cls-12" x="68.88" y="0">ve</tspan><tspan class="cls-13" x="133.12" y="0">r</tspan><tspan class="cls-14" x="165.97" y="0">ty </tspan><tspan x="0" y="62.67">Moni</tspan><tspan class="cls-15" x="144.11" y="62.67">t</tspan><tspan x="173.67" y="62.67">oring </tspan><tspan x="0" y="125.35">System</tspan></text></svg>